<mxfile host="app.diagrams.net" modified="2021-04-05T15:21:07.519Z" agent="5.0 (X11)" etag="vK50BxhgHF-JO9dI6kKw" version="14.5.7" type="github">
  <diagram id="Qg9ViaIGETyGiUArWSUI" name="Page-1">
    <mxGraphModel dx="1718" dy="937" grid="1" gridSize="10" guides="1" tooltips="1" connect="1" arrows="1" fold="1" page="1" pageScale="1" pageWidth="850" pageHeight="1100" math="0" shadow="0">
      <root>
        <mxCell id="0" />
        <mxCell id="1" parent="0" />
        <mxCell id="K6d3zdfQYktk-aqqjCJH-3" value="" style="rounded=0;whiteSpace=wrap;html=1;" parent="1" vertex="1">
          <mxGeometry x="30" y="180" width="110" height="40" as="geometry" />
        </mxCell>
        <mxCell id="K6d3zdfQYktk-aqqjCJH-1" value="" style="rounded=0;whiteSpace=wrap;html=1;" parent="1" vertex="1">
          <mxGeometry x="30" y="220" width="1090" height="810" as="geometry" />
        </mxCell>
        <mxCell id="2ZUSXK3SyZeQ5Ve37l7V-1" value="" style="rounded=0;whiteSpace=wrap;html=1;fillColor=#FCFCFC;" parent="1" vertex="1">
          <mxGeometry x="320" y="350" width="20" height="640" as="geometry" />
        </mxCell>
        <mxCell id="2ZUSXK3SyZeQ5Ve37l7V-2" value="addEmployeeTo Activity(a, p, e1, e2)" style="text;html=1;strokeColor=none;fillColor=none;align=center;verticalAlign=middle;whiteSpace=wrap;rounded=0;" parent="1" vertex="1">
          <mxGeometry x="100" y="350" width="210" height="20" as="geometry" />
        </mxCell>
        <mxCell id="2ZUSXK3SyZeQ5Ve37l7V-3" value="Time management" style="rounded=0;whiteSpace=wrap;html=1;fillColor=#FCFCFC;strokeColor=#0F0F0F;" parent="1" vertex="1">
          <mxGeometry x="270" y="260" width="120" height="60" as="geometry" />
        </mxCell>
        <mxCell id="2ZUSXK3SyZeQ5Ve37l7V-4" value="e1: Employee" style="rounded=0;whiteSpace=wrap;html=1;fillColor=#FCFCFC;strokeColor=#0F0F0F;" parent="1" vertex="1">
          <mxGeometry x="650" y="260" width="120" height="60" as="geometry" />
        </mxCell>
        <mxCell id="2ZUSXK3SyZeQ5Ve37l7V-5" value="p: Project" style="rounded=0;whiteSpace=wrap;html=1;fillColor=#FCFCFC;strokeColor=#0F0F0F;" parent="1" vertex="1">
          <mxGeometry x="500" y="260" width="120" height="60" as="geometry" />
        </mxCell>
        <mxCell id="2ZUSXK3SyZeQ5Ve37l7V-6" value="a: Activity" style="rounded=0;whiteSpace=wrap;html=1;fillColor=#FCFCFC;strokeColor=#0F0F0F;" parent="1" vertex="1">
          <mxGeometry x="950" y="260" width="120" height="60" as="geometry" />
        </mxCell>
        <mxCell id="2ZUSXK3SyZeQ5Ve37l7V-7" value="" style="rounded=0;whiteSpace=wrap;html=1;fillColor=#FCFCFC;" parent="1" vertex="1">
          <mxGeometry x="80" y="350" width="20" height="670" as="geometry" />
        </mxCell>
        <mxCell id="2ZUSXK3SyZeQ5Ve37l7V-8" value="Employee" style="shape=umlActor;verticalLabelPosition=bottom;verticalAlign=top;html=1;outlineConnect=0;strokeColor=#0F0F0F;fillColor=#FCFCFC;" parent="1" vertex="1">
          <mxGeometry x="95" y="260" width="30" height="60" as="geometry" />
        </mxCell>
        <mxCell id="2ZUSXK3SyZeQ5Ve37l7V-9" value="" style="endArrow=classic;html=1;entryX=0;entryY=0.05;entryDx=0;entryDy=0;entryPerimeter=0;exitX=1.014;exitY=0.05;exitDx=0;exitDy=0;exitPerimeter=0;" parent="1" source="2ZUSXK3SyZeQ5Ve37l7V-7" target="2ZUSXK3SyZeQ5Ve37l7V-1" edge="1">
          <mxGeometry width="50" height="50" relative="1" as="geometry">
            <mxPoint x="140" y="373" as="sourcePoint" />
            <mxPoint x="220" y="440" as="targetPoint" />
          </mxGeometry>
        </mxCell>
        <mxCell id="2ZUSXK3SyZeQ5Ve37l7V-10" value="" style="endArrow=none;dashed=1;html=1;exitX=0.5;exitY=1;exitDx=0;exitDy=0;entryX=0.5;entryY=0;entryDx=0;entryDy=0;" parent="1" source="2ZUSXK3SyZeQ5Ve37l7V-3" target="2ZUSXK3SyZeQ5Ve37l7V-1" edge="1">
          <mxGeometry width="50" height="50" relative="1" as="geometry">
            <mxPoint x="320" y="420" as="sourcePoint" />
            <mxPoint x="370" y="370" as="targetPoint" />
          </mxGeometry>
        </mxCell>
        <mxCell id="2ZUSXK3SyZeQ5Ve37l7V-11" value="" style="endArrow=none;dashed=1;html=1;exitX=0.5;exitY=0;exitDx=0;exitDy=0;entryX=0.5;entryY=1;entryDx=0;entryDy=0;" parent="1" source="2ZUSXK3SyZeQ5Ve37l7V-17" target="2ZUSXK3SyZeQ5Ve37l7V-5" edge="1">
          <mxGeometry width="50" height="50" relative="1" as="geometry">
            <mxPoint x="555" y="360" as="sourcePoint" />
            <mxPoint x="565" y="340" as="targetPoint" />
          </mxGeometry>
        </mxCell>
        <mxCell id="2ZUSXK3SyZeQ5Ve37l7V-13" value="" style="rounded=0;whiteSpace=wrap;html=1;strokeColor=#0F0F0F;fillColor=#FCFCFC;" parent="1" vertex="1">
          <mxGeometry x="330" y="390" width="20" height="30" as="geometry" />
        </mxCell>
        <mxCell id="2ZUSXK3SyZeQ5Ve37l7V-14" value="" style="endArrow=classic;html=1;entryX=1;entryY=0;entryDx=0;entryDy=0;rounded=0;" parent="1" target="2ZUSXK3SyZeQ5Ve37l7V-13" edge="1">
          <mxGeometry width="50" height="50" relative="1" as="geometry">
            <mxPoint x="340" y="370" as="sourcePoint" />
            <mxPoint x="460" y="340" as="targetPoint" />
            <Array as="points">
              <mxPoint x="370" y="370" />
              <mxPoint x="370" y="390" />
            </Array>
          </mxGeometry>
        </mxCell>
        <mxCell id="2ZUSXK3SyZeQ5Ve37l7V-15" value="employeeRegistered(e)" style="text;html=1;strokeColor=none;fillColor=none;align=center;verticalAlign=middle;whiteSpace=wrap;rounded=0;" parent="1" vertex="1">
          <mxGeometry x="420" y="370" width="40" height="20" as="geometry" />
        </mxCell>
        <mxCell id="2ZUSXK3SyZeQ5Ve37l7V-16" value="" style="endArrow=open;html=1;dashed=1;exitX=1;exitY=1;exitDx=0;exitDy=0;rounded=0;endFill=0;" parent="1" source="2ZUSXK3SyZeQ5Ve37l7V-13" edge="1">
          <mxGeometry width="50" height="50" relative="1" as="geometry">
            <mxPoint x="390" y="400" as="sourcePoint" />
            <mxPoint x="341" y="440" as="targetPoint" />
            <Array as="points">
              <mxPoint x="370" y="420" />
              <mxPoint x="370" y="440" />
            </Array>
          </mxGeometry>
        </mxCell>
        <mxCell id="2ZUSXK3SyZeQ5Ve37l7V-17" value="" style="rounded=0;whiteSpace=wrap;html=1;strokeColor=#0F0F0F;fillColor=#FCFCFC;" parent="1" vertex="1">
          <mxGeometry x="550" y="460" width="20" height="350" as="geometry" />
        </mxCell>
        <mxCell id="2ZUSXK3SyZeQ5Ve37l7V-18" value="" style="endArrow=classic;html=1;entryX=0;entryY=0;entryDx=0;entryDy=0;" parent="1" target="2ZUSXK3SyZeQ5Ve37l7V-17" edge="1">
          <mxGeometry width="50" height="50" relative="1" as="geometry">
            <mxPoint x="340" y="460" as="sourcePoint" />
            <mxPoint x="490" y="270" as="targetPoint" />
          </mxGeometry>
        </mxCell>
        <mxCell id="2ZUSXK3SyZeQ5Ve37l7V-19" value="isProjectManager(e1)" style="text;html=1;strokeColor=none;fillColor=none;align=center;verticalAlign=middle;whiteSpace=wrap;rounded=0;" parent="1" vertex="1">
          <mxGeometry x="430" y="440" width="40" height="20" as="geometry" />
        </mxCell>
        <mxCell id="2ZUSXK3SyZeQ5Ve37l7V-28" value="" style="endArrow=open;html=1;dashed=1;exitX=0;exitY=1;exitDx=0;exitDy=0;endFill=0;entryX=1.003;entryY=0.722;entryDx=0;entryDy=0;entryPerimeter=0;" parent="1" source="2ZUSXK3SyZeQ5Ve37l7V-17" edge="1" target="2ZUSXK3SyZeQ5Ve37l7V-1">
          <mxGeometry width="50" height="50" relative="1" as="geometry">
            <mxPoint x="540" y="300" as="sourcePoint" />
            <mxPoint x="340" y="810" as="targetPoint" />
          </mxGeometry>
        </mxCell>
        <mxCell id="2ZUSXK3SyZeQ5Ve37l7V-29" value="true" style="text;html=1;strokeColor=none;fillColor=none;align=center;verticalAlign=middle;whiteSpace=wrap;rounded=0;" parent="1" vertex="1">
          <mxGeometry x="425" y="790" width="40" height="20" as="geometry" />
        </mxCell>
        <mxCell id="2ZUSXK3SyZeQ5Ve37l7V-30" value="" style="rounded=0;whiteSpace=wrap;html=1;strokeColor=#0F0F0F;fillColor=#FCFCFC;" parent="1" vertex="1">
          <mxGeometry x="560" y="830" width="20" height="120" as="geometry" />
        </mxCell>
        <mxCell id="2ZUSXK3SyZeQ5Ve37l7V-31" value="" style="endArrow=classic;html=1;entryX=0;entryY=0;entryDx=0;entryDy=0;" parent="1" target="2ZUSXK3SyZeQ5Ve37l7V-30" edge="1">
          <mxGeometry width="50" height="50" relative="1" as="geometry">
            <mxPoint x="341" y="830" as="sourcePoint" />
            <mxPoint x="450" y="470" as="targetPoint" />
          </mxGeometry>
        </mxCell>
        <mxCell id="2ZUSXK3SyZeQ5Ve37l7V-32" value="addEmployeeToActivity(a,e2)" style="text;html=1;strokeColor=none;fillColor=none;align=center;verticalAlign=middle;whiteSpace=wrap;rounded=0;" parent="1" vertex="1">
          <mxGeometry x="430" y="810" width="40" height="20" as="geometry" />
        </mxCell>
        <mxCell id="2ZUSXK3SyZeQ5Ve37l7V-33" value="" style="endArrow=open;html=1;dashed=1;exitX=0;exitY=1;exitDx=0;exitDy=0;entryX=1.119;entryY=0.935;entryDx=0;entryDy=0;entryPerimeter=0;endFill=0;" parent="1" source="2ZUSXK3SyZeQ5Ve37l7V-30" target="2ZUSXK3SyZeQ5Ve37l7V-1" edge="1">
          <mxGeometry width="50" height="50" relative="1" as="geometry">
            <mxPoint x="520" y="830" as="sourcePoint" />
            <mxPoint x="570" y="780" as="targetPoint" />
          </mxGeometry>
        </mxCell>
        <mxCell id="2ZUSXK3SyZeQ5Ve37l7V-34" value="true" style="text;html=1;strokeColor=none;fillColor=none;align=center;verticalAlign=middle;whiteSpace=wrap;rounded=0;" parent="1" vertex="1">
          <mxGeometry x="435" y="930" width="40" height="20" as="geometry" />
        </mxCell>
        <mxCell id="2ZUSXK3SyZeQ5Ve37l7V-35" value="" style="endArrow=open;html=1;dashed=1;exitX=0;exitY=1;exitDx=0;exitDy=0;entryX=1.02;entryY=0.955;entryDx=0;entryDy=0;entryPerimeter=0;endFill=0;" parent="1" source="2ZUSXK3SyZeQ5Ve37l7V-1" target="2ZUSXK3SyZeQ5Ve37l7V-7" edge="1">
          <mxGeometry width="50" height="50" relative="1" as="geometry">
            <mxPoint x="220" y="500" as="sourcePoint" />
            <mxPoint x="143" y="799" as="targetPoint" />
          </mxGeometry>
        </mxCell>
        <mxCell id="2ZUSXK3SyZeQ5Ve37l7V-36" value="true" style="text;html=1;strokeColor=none;fillColor=none;align=center;verticalAlign=middle;whiteSpace=wrap;rounded=0;" parent="1" vertex="1">
          <mxGeometry x="190" y="970" width="40" height="20" as="geometry" />
        </mxCell>
        <mxCell id="2ZUSXK3SyZeQ5Ve37l7V-37" value="true" style="text;html=1;strokeColor=none;fillColor=none;align=center;verticalAlign=middle;whiteSpace=wrap;rounded=0;" parent="1" vertex="1">
          <mxGeometry x="370" y="420" width="40" height="20" as="geometry" />
        </mxCell>
        <mxCell id="2ZUSXK3SyZeQ5Ve37l7V-43" value="" style="rounded=0;whiteSpace=wrap;html=1;strokeColor=#0F0F0F;fillColor=#FCFCFC;" parent="1" vertex="1">
          <mxGeometry x="1000" y="860" width="20" height="40" as="geometry" />
        </mxCell>
        <mxCell id="2ZUSXK3SyZeQ5Ve37l7V-44" value="" style="endArrow=none;dashed=1;html=1;exitX=0.5;exitY=1;exitDx=0;exitDy=0;entryX=0.5;entryY=0;entryDx=0;entryDy=0;" parent="1" source="2ZUSXK3SyZeQ5Ve37l7V-6" target="2ZUSXK3SyZeQ5Ve37l7V-43" edge="1">
          <mxGeometry width="50" height="50" relative="1" as="geometry">
            <mxPoint x="740" y="580" as="sourcePoint" />
            <mxPoint x="790" y="530" as="targetPoint" />
          </mxGeometry>
        </mxCell>
        <mxCell id="2ZUSXK3SyZeQ5Ve37l7V-45" value="" style="endArrow=classic;html=1;exitX=1;exitY=0.25;exitDx=0;exitDy=0;entryX=0;entryY=0;entryDx=0;entryDy=0;" parent="1" source="2ZUSXK3SyZeQ5Ve37l7V-30" target="2ZUSXK3SyZeQ5Ve37l7V-43" edge="1">
          <mxGeometry width="50" height="50" relative="1" as="geometry">
            <mxPoint x="740" y="580" as="sourcePoint" />
            <mxPoint x="790" y="530" as="targetPoint" />
          </mxGeometry>
        </mxCell>
        <mxCell id="2ZUSXK3SyZeQ5Ve37l7V-46" value="addEmployee(e2)" style="text;html=1;strokeColor=none;fillColor=none;align=center;verticalAlign=middle;whiteSpace=wrap;rounded=0;" parent="1" vertex="1">
          <mxGeometry x="740" y="840" width="40" height="20" as="geometry" />
        </mxCell>
        <mxCell id="2ZUSXK3SyZeQ5Ve37l7V-54" value="" style="endArrow=open;html=1;dashed=1;exitX=0;exitY=1;exitDx=0;exitDy=0;entryX=0.996;entryY=0.585;entryDx=0;entryDy=0;entryPerimeter=0;endFill=0;" parent="1" source="2ZUSXK3SyZeQ5Ve37l7V-43" target="2ZUSXK3SyZeQ5Ve37l7V-30" edge="1">
          <mxGeometry width="50" height="50" relative="1" as="geometry">
            <mxPoint x="600" y="400" as="sourcePoint" />
            <mxPoint x="584" y="902" as="targetPoint" />
          </mxGeometry>
        </mxCell>
        <mxCell id="2ZUSXK3SyZeQ5Ve37l7V-55" value="true" style="text;html=1;strokeColor=none;fillColor=none;align=center;verticalAlign=middle;whiteSpace=wrap;rounded=0;" parent="1" vertex="1">
          <mxGeometry x="760" y="875" width="40" height="30" as="geometry" />
        </mxCell>
        <mxCell id="K6d3zdfQYktk-aqqjCJH-2" value="Add employee to activity" style="text;html=1;strokeColor=none;fillColor=none;align=center;verticalAlign=middle;whiteSpace=wrap;rounded=0;fontSize=15;" parent="1" vertex="1">
          <mxGeometry x="35" y="190" width="100" height="20" as="geometry" />
        </mxCell>
        <mxCell id="1_9KbQEarmycneL-nDgJ-1" value="&lt;div&gt;e2: Employee&lt;/div&gt;" style="rounded=0;whiteSpace=wrap;html=1;fillColor=#FCFCFC;strokeColor=#0F0F0F;" vertex="1" parent="1">
          <mxGeometry x="790" y="260" width="120" height="60" as="geometry" />
        </mxCell>
      </root>
    </mxGraphModel>
  </diagram>
</mxfile>
